<svg width="1280" height="640" viewBox="0 0 1280 640" xmlns="http://www.w3.org/2000/svg">
  <defs>
    <linearGradient id="bg" x1="0" y1="0" x2="0" y2="1">
      <stop offset="0" stop-color="#2D2A28"/>
      <stop offset="1" stop-color="#1A1816"/>
    </linearGradient>
  </defs>
  <rect width="1280" height="640" fill="url(#bg)"/>
  <g transform="translate(640 290) scale(5.2) translate(-61.5 -24)">
    <path d="M68.246 37.7891C69.274 35.5681 70.0367 33.1482 70.4346 30.5957C71.6284 29.336 73.9496 26.2532 73.9496 20.7172C73.9496 20.7172 73.0211 22.0101 70.5341 22.9714C69.904 17.6012 67.9476 12.5957 64.8968 8.68409L70.4678 1.78906L62.3435 4.57359L54.2523 1.78906L59.7901 8.65094C56.7062 12.5957 54.7497 17.6012 54.1528 23.0045C51.6658 22.0432 50.7373 20.7835 50.7373 20.7835C50.7705 26.2863 53.0917 29.4023 54.2855 30.662C55.2803 36.8609 58.3974 42.2974 62.4098 46.209C64.4657 44.1537 66.2896 41.7007 67.7155 38.9493C66.4554 38.0874 63.1725 36.43 59.0274 37.7891C58.9611 37.8222 62.9735 34.5736 68.246 37.7891ZM62.3435 39.9438C62.9072 39.9438 63.3051 40.3747 63.3383 40.9051C63.3714 41.4355 62.874 41.8664 62.3435 41.8664C61.7797 41.8664 61.3818 41.4355 61.3486 40.9051C61.3486 40.3747 61.8461 39.9438 62.3435 39.9438Z" fill="#EBE8DD"/>
  </g>
  <text x="640" y="510" text-anchor="middle" font-family="Georgia, 'Times New Roman', serif" font-size="92" font-weight="700" letter-spacing="14" fill="#EBE8DD">TARANKA</text>
  <text x="640" y="560" text-anchor="middle" font-family="Georgia, 'Times New Roman', serif" font-size="22" letter-spacing="6" fill="#9E9B90">CRAFT BEER · E-COMMERCE</text>
</svg>
