<svg width="489" height="428" viewBox="0 0 489 428" fill="none" xmlns="http://www.w3.org/2000/svg">
<path d="M293.029 110.829C292.461 110.376 278.812 99.8242 261.698 99.8242C244.584 99.8242 235.011 107.519 231.447 110.037L220.596 102.993L218.267 106.543L228.194 112.993L218.267 119.443L220.596 122.993L232.185 115.468C236.488 118.396 247.964 125.172 261.698 125.172C275.432 125.172 292.461 114.62 293.029 114.167L295.145 112.498L293.029 110.829ZM275.389 115.313C273.827 115.313 272.549 114.04 272.549 112.484C272.549 110.928 273.827 109.655 275.389 109.655C276.952 109.655 278.23 110.928 278.23 112.484C278.23 114.04 276.952 115.313 275.389 115.313Z" fill="#EBE8DD" fill-opacity="0.5"/>
<path d="M51.7623 110.829C51.1942 110.376 37.5455 99.8242 20.4314 99.8242C3.31735 99.8242 -6.25517 107.519 -9.82002 110.037L-20.6708 102.993L-23 106.543L-13.0724 112.993L-23 119.443L-20.6708 122.993L-9.08149 115.468C-4.77811 118.396 6.69756 125.172 20.4314 125.172C34.1653 125.172 51.1942 114.62 51.7623 114.167L53.8785 112.498L51.7623 110.829ZM34.1227 115.313C32.5604 115.313 31.2822 114.04 31.2822 112.484C31.2822 110.928 32.5604 109.655 34.1227 109.655C35.685 109.655 36.9632 110.928 36.9632 112.484C36.9632 114.04 35.685 115.313 34.1227 115.313Z" fill="#EBE8DD" fill-opacity="0.5"/>
<path d="M293.029 234.583C292.461 234.13 278.812 223.578 261.698 223.578C244.584 223.578 235.011 231.273 231.447 233.791L220.596 226.747L218.267 230.297L228.194 236.747L218.267 243.197L220.596 246.747L232.185 239.222C236.488 242.15 247.964 248.926 261.698 248.926C275.432 248.926 292.461 238.374 293.029 237.921L295.145 236.252L293.029 234.583ZM275.389 239.067C273.827 239.067 272.549 237.794 272.549 236.238C272.549 234.682 273.827 233.409 275.389 233.409C276.952 233.409 278.23 234.682 278.23 236.238C278.23 237.794 276.952 239.067 275.389 239.067Z" fill="#EBE8DD" fill-opacity="0.5"/>
<path d="M51.7623 234.583C51.1942 234.13 37.5455 223.578 20.4314 223.578C3.31735 223.578 -6.25517 231.273 -9.82002 233.791L-20.6708 226.747L-23 230.297L-13.0724 236.747L-23 243.197L-20.6708 246.747L-9.08149 239.222C-4.77812 242.15 6.69756 248.926 20.4314 248.926C34.1653 248.926 51.1942 238.374 51.7623 237.921L53.8785 236.252L51.7623 234.583ZM34.1227 239.067C32.5604 239.067 31.2822 237.794 31.2822 236.238C31.2822 234.682 32.5604 233.409 34.1227 233.409C35.685 233.409 36.9632 234.682 36.9632 236.238C36.9632 237.794 35.685 239.067 34.1227 239.067Z" fill="#EBE8DD" fill-opacity="0.5"/>
<path d="M293.029 378.94C292.461 378.488 278.812 367.936 261.698 367.936C244.584 367.936 235.011 375.63 231.447 378.148L220.596 371.104L218.267 374.654L228.194 381.104L218.267 387.554L220.596 391.105L232.185 383.58C236.488 386.508 247.964 393.283 261.698 393.283C275.432 393.283 292.461 382.731 293.029 382.278L295.145 380.609L293.029 378.94ZM275.389 383.424C273.827 383.424 272.549 382.151 272.549 380.595C272.549 379.039 273.827 377.766 275.389 377.766C276.952 377.766 278.23 379.039 278.23 380.595C278.23 382.151 276.952 383.424 275.389 383.424Z" fill="#EBE8DD" fill-opacity="0.5"/>
<path d="M51.7623 378.94C51.1942 378.488 37.5455 367.936 20.4314 367.936C3.31735 367.936 -6.25517 375.63 -9.82002 378.148L-20.6708 371.104L-23 374.654L-13.0724 381.104L-23 387.554L-20.6708 391.105L-9.08149 383.58C-4.77812 386.508 6.69756 393.283 20.4314 393.283C34.1653 393.283 51.1942 382.731 51.7623 382.278L53.8785 380.609L51.7623 378.94ZM34.1227 383.424C32.5604 383.424 31.2822 382.151 31.2822 380.595C31.2822 379.039 32.5604 377.766 34.1227 377.766C35.685 377.766 36.9632 379.039 36.9632 380.595C36.9632 382.151 35.685 383.424 34.1227 383.424Z" fill="#EBE8DD" fill-opacity="0.5"/>
<path d="M151.049 111.301C148.035 111.301 146.549 108.99 145.564 107.463C144.635 106.037 144.264 105.594 143.678 105.594C143.093 105.594 142.707 106.037 141.793 107.463C140.808 108.99 139.322 111.301 136.308 111.301C133.295 111.301 131.809 108.99 130.824 107.463C129.895 106.037 129.524 105.594 128.938 105.594C128.353 105.594 127.981 106.037 127.053 107.463C126.067 108.99 124.582 111.301 121.568 111.301C118.555 111.301 117.069 108.99 116.084 107.463C115.155 106.037 114.784 105.594 114.198 105.594V101.314C117.212 101.314 118.697 103.626 119.683 105.152C120.611 106.579 120.983 107.021 121.568 107.021C122.154 107.021 122.54 106.579 123.454 105.152C124.439 103.626 125.925 101.314 128.938 101.314C131.952 101.314 133.438 103.626 134.423 105.152C135.351 106.579 135.723 107.021 136.308 107.021C136.894 107.021 137.28 106.579 138.194 105.152C139.179 103.626 140.665 101.314 143.678 101.314C146.692 101.314 148.178 103.626 149.163 105.152C150.092 106.579 150.463 107.021 151.049 107.021C151.634 107.021 152.02 106.579 152.948 105.152C153.934 103.626 155.591 101.314 158.447 101.314V105.594C158.447 105.594 157.476 106.037 156.548 107.463C155.562 108.99 154.062 111.301 151.049 111.301Z" fill="#EBE8DD" fill-opacity="0.5"/>
<path d="M151.049 124.141C148.035 124.141 146.549 121.83 145.564 120.303C144.635 118.876 144.264 118.434 143.678 118.434C143.093 118.434 142.707 118.876 141.793 120.303C140.808 121.83 139.322 124.141 136.308 124.141C133.295 124.141 131.809 121.83 130.824 120.303C129.895 118.876 129.524 118.434 128.938 118.434C128.353 118.434 127.981 118.876 127.053 120.303C126.067 121.83 124.582 124.141 121.568 124.141C118.555 124.141 117.069 121.83 116.084 120.303C115.155 118.876 114.784 118.434 114.198 118.434V114.154C117.212 114.154 118.697 116.465 119.683 117.992C120.611 119.419 120.983 119.861 121.568 119.861C122.154 119.861 122.54 119.419 123.454 117.992C124.439 116.465 125.925 114.154 128.938 114.154C131.952 114.154 133.438 116.465 134.423 117.992C135.351 119.419 135.723 119.861 136.308 119.861C136.894 119.861 137.28 119.419 138.194 117.992C139.179 116.465 140.665 114.154 143.678 114.154C146.692 114.154 148.178 116.465 149.163 117.992C150.092 119.419 150.463 119.861 151.049 119.861C151.634 119.861 152.02 119.419 152.948 117.992C153.934 116.465 155.591 114.154 158.447 114.154V118.434C158.447 118.434 157.476 118.876 156.548 120.303C155.562 121.83 154.062 124.141 151.049 124.141Z" fill="#EBE8DD" fill-opacity="0.5"/>
<path d="M151.049 233.594C148.035 233.594 146.549 231.283 145.564 229.756C144.635 228.33 144.264 227.887 143.678 227.887C143.093 227.887 142.707 228.33 141.793 229.756C140.808 231.283 139.322 233.594 136.308 233.594C133.295 233.594 131.809 231.283 130.824 229.756C129.895 228.33 129.524 227.887 128.938 227.887C128.353 227.887 127.981 228.33 127.053 229.756C126.067 231.283 124.582 233.594 121.568 233.594C118.555 233.594 117.069 231.283 116.084 229.756C115.155 228.33 114.784 227.887 114.198 227.887V223.607C117.212 223.607 118.697 225.919 119.683 227.445C120.611 228.872 120.983 229.314 121.568 229.314C122.154 229.314 122.54 228.872 123.454 227.445C124.439 225.919 125.925 223.607 128.938 223.607C131.952 223.607 133.438 225.919 134.423 227.445C135.351 228.872 135.723 229.314 136.308 229.314C136.894 229.314 137.28 228.872 138.194 227.445C139.179 225.919 140.665 223.607 143.678 223.607C146.692 223.607 148.178 225.919 149.163 227.445C150.092 228.872 150.463 229.314 151.049 229.314C151.634 229.314 152.02 228.872 152.948 227.445C153.934 225.919 155.591 223.607 158.447 223.607V227.887C158.447 227.887 157.476 228.33 156.548 229.756C155.562 231.283 154.062 233.594 151.049 233.594Z" fill="#EBE8DD" fill-opacity="0.5"/>
<path d="M151.049 246.434C148.035 246.434 146.549 244.122 145.564 242.596C144.635 241.169 144.264 240.727 143.678 240.727C143.093 240.727 142.707 241.169 141.793 242.596C140.808 244.122 139.322 246.434 136.308 246.434C133.295 246.434 131.809 244.122 130.824 242.596C129.895 241.169 129.524 240.727 128.938 240.727C128.353 240.727 127.981 241.169 127.053 242.596C126.067 244.122 124.582 246.434 121.568 246.434C118.555 246.434 117.069 244.122 116.084 242.596C115.155 241.169 114.784 240.727 114.198 240.727V236.447C117.212 236.447 118.697 238.758 119.683 240.285C120.611 241.711 120.983 242.154 121.568 242.154C122.154 242.154 122.54 241.711 123.454 240.285C124.439 238.758 125.925 236.447 128.938 236.447C131.952 236.447 133.438 238.758 134.423 240.285C135.351 241.711 135.723 242.154 136.308 242.154C136.894 242.154 137.28 241.711 138.194 240.285C139.179 238.758 140.665 236.447 143.678 236.447C146.692 236.447 148.178 238.758 149.163 240.285C150.092 241.711 150.463 242.154 151.049 242.154C151.634 242.154 152.02 241.711 152.948 240.285C153.934 238.758 155.591 236.447 158.447 236.447V240.727C158.447 240.727 157.476 241.169 156.548 242.596C155.562 244.122 154.062 246.434 151.049 246.434Z" fill="#EBE8DD" fill-opacity="0.5"/>
<path d="M151.049 377.951C148.035 377.951 146.549 375.64 145.564 374.114C144.635 372.687 144.264 372.245 143.678 372.245C143.093 372.245 142.707 372.687 141.793 374.114C140.808 375.64 139.322 377.951 136.308 377.951C133.295 377.951 131.809 375.64 130.824 374.114C129.895 372.687 129.524 372.245 128.938 372.245C128.353 372.245 127.981 372.687 127.053 374.114C126.067 375.64 124.582 377.951 121.568 377.951C118.555 377.951 117.069 375.64 116.084 374.114C115.155 372.687 114.784 372.245 114.198 372.245V367.965C117.212 367.965 118.697 370.276 119.683 371.802C120.611 373.229 120.983 373.671 121.568 373.671C122.154 373.671 122.54 373.229 123.454 371.802C124.439 370.276 125.925 367.965 128.938 367.965C131.952 367.965 133.438 370.276 134.423 371.802C135.351 373.229 135.723 373.671 136.308 373.671C136.894 373.671 137.28 373.229 138.194 371.802C139.179 370.276 140.665 367.965 143.678 367.965C146.692 367.965 148.178 370.276 149.163 371.802C150.092 373.229 150.463 373.671 151.049 373.671C151.634 373.671 152.02 373.229 152.948 371.802C153.934 370.276 155.591 367.965 158.447 367.965V372.245C158.447 372.245 157.476 372.687 156.548 374.114C155.562 375.64 154.062 377.951 151.049 377.951Z" fill="#EBE8DD" fill-opacity="0.5"/>
<path d="M151.049 390.791C148.035 390.791 146.549 388.48 145.564 386.953C144.635 385.527 144.264 385.085 143.678 385.085C143.093 385.085 142.707 385.527 141.793 386.953C140.808 388.48 139.322 390.791 136.308 390.791C133.295 390.791 131.809 388.48 130.824 386.953C129.895 385.527 129.524 385.085 128.938 385.085C128.353 385.085 127.981 385.527 127.053 386.953C126.067 388.48 124.582 390.791 121.568 390.791C118.555 390.791 117.069 388.48 116.084 386.953C115.155 385.527 114.784 385.085 114.198 385.085V380.805C117.212 380.805 118.697 383.116 119.683 384.642C120.611 386.069 120.983 386.511 121.568 386.511C122.154 386.511 122.54 386.069 123.454 384.642C124.439 383.116 125.925 380.805 128.938 380.805C131.952 380.805 133.438 383.116 134.423 384.642C135.351 386.069 135.723 386.511 136.308 386.511C136.894 386.511 137.28 386.069 138.194 384.642C139.179 383.116 140.665 380.805 143.678 380.805C146.692 380.805 148.178 383.116 149.163 384.642C150.092 386.069 150.463 386.511 151.049 386.511C151.634 386.511 152.02 386.069 152.948 384.642C153.934 383.116 155.591 380.805 158.447 380.805V385.085C158.447 385.085 157.476 385.527 156.548 386.953C155.562 388.48 154.062 390.791 151.049 390.791Z" fill="#EBE8DD" fill-opacity="0.5"/>
<path d="M389.576 111.301C386.562 111.301 385.077 108.99 384.091 107.463C383.163 106.037 382.791 105.594 382.206 105.594C381.62 105.594 381.235 106.037 380.32 107.463C379.335 108.99 377.85 111.301 374.836 111.301C371.822 111.301 370.337 108.99 369.351 107.463C368.423 106.037 368.051 105.594 367.466 105.594C366.88 105.594 366.509 106.037 365.58 107.463C364.595 108.99 363.109 111.301 360.096 111.301C357.082 111.301 355.596 108.99 354.611 107.463C353.683 106.037 353.311 105.594 352.726 105.594V101.314C355.739 101.314 357.225 103.626 358.21 105.152C359.139 106.579 359.51 107.021 360.096 107.021C360.681 107.021 361.067 106.579 361.981 105.152C362.967 103.626 364.452 101.314 367.466 101.314C370.479 101.314 371.965 103.626 372.95 105.152C373.879 106.579 374.25 107.021 374.836 107.021C375.421 107.021 375.807 106.579 376.721 105.152C377.707 103.626 379.192 101.314 382.206 101.314C385.22 101.314 386.705 103.626 387.691 105.152C388.619 106.579 388.99 107.021 389.576 107.021C390.162 107.021 390.547 106.579 391.476 105.152C392.461 103.626 394.118 101.314 396.975 101.314V105.594C396.975 105.594 396.003 106.037 395.075 107.463C394.089 108.99 392.59 111.301 389.576 111.301Z" fill="#EBE8DD" fill-opacity="0.5"/>
<path d="M389.576 124.141C386.562 124.141 385.077 121.83 384.091 120.303C383.163 118.876 382.791 118.434 382.206 118.434C381.62 118.434 381.235 118.876 380.32 120.303C379.335 121.83 377.85 124.141 374.836 124.141C371.822 124.141 370.337 121.83 369.351 120.303C368.423 118.876 368.051 118.434 367.466 118.434C366.88 118.434 366.509 118.876 365.58 120.303C364.595 121.83 363.109 124.141 360.096 124.141C357.082 124.141 355.596 121.83 354.611 120.303C353.683 118.876 353.311 118.434 352.726 118.434V114.154C355.739 114.154 357.225 116.465 358.21 117.992C359.139 119.419 359.51 119.861 360.096 119.861C360.681 119.861 361.067 119.419 361.981 117.992C362.967 116.465 364.452 114.154 367.466 114.154C370.479 114.154 371.965 116.465 372.95 117.992C373.879 119.419 374.25 119.861 374.836 119.861C375.421 119.861 375.807 119.419 376.721 117.992C377.707 116.465 379.192 114.154 382.206 114.154C385.22 114.154 386.705 116.465 387.691 117.992C388.619 119.419 388.99 119.861 389.576 119.861C390.162 119.861 390.547 119.419 391.476 117.992C392.461 116.465 394.118 114.154 396.975 114.154V118.434C396.975 118.434 396.003 118.876 395.075 120.303C394.089 121.83 392.59 124.141 389.576 124.141Z" fill="#EBE8DD" fill-opacity="0.5"/>
<path d="M389.576 227.629C386.562 227.629 385.077 225.318 384.091 223.791C383.163 222.365 382.791 221.922 382.206 221.922C381.62 221.922 381.235 222.365 380.32 223.791C379.335 225.318 377.85 227.629 374.836 227.629C371.822 227.629 370.337 225.318 369.351 223.791C368.423 222.365 368.051 221.922 367.466 221.922C366.88 221.922 366.509 222.365 365.58 223.791C364.595 225.318 363.109 227.629 360.096 227.629C357.082 227.629 355.596 225.318 354.611 223.791C353.683 222.365 353.311 221.922 352.726 221.922V217.643C355.739 217.643 357.225 219.954 358.21 221.48C359.139 222.907 359.51 223.349 360.096 223.349C360.681 223.349 361.067 222.907 361.981 221.48C362.967 219.954 364.452 217.643 367.466 217.643C370.479 217.643 371.965 219.954 372.95 221.48C373.879 222.907 374.25 223.349 374.836 223.349C375.421 223.349 375.807 222.907 376.721 221.48C377.707 219.954 379.192 217.643 382.206 217.643C385.22 217.643 386.705 219.954 387.691 221.48C388.619 222.907 388.99 223.349 389.576 223.349C390.162 223.349 390.547 222.907 391.476 221.48C392.461 219.954 394.118 217.643 396.975 217.643V221.922C396.975 221.922 396.003 222.365 395.075 223.791C394.089 225.318 392.59 227.629 389.576 227.629Z" fill="#EBE8DD" fill-opacity="0.5"/>
<path d="M389.576 240.469C386.562 240.469 385.077 238.158 384.091 236.631C383.163 235.205 382.791 234.762 382.206 234.762C381.62 234.762 381.235 235.205 380.32 236.631C379.335 238.158 377.85 240.469 374.836 240.469C371.822 240.469 370.337 238.158 369.351 236.631C368.423 235.205 368.051 234.762 367.466 234.762C366.88 234.762 366.509 235.205 365.58 236.631C364.595 238.158 363.109 240.469 360.096 240.469C357.082 240.469 355.596 238.158 354.611 236.631C353.683 235.205 353.311 234.762 352.726 234.762V230.482C355.739 230.482 357.225 232.794 358.21 234.32C359.139 235.747 359.51 236.189 360.096 236.189C360.681 236.189 361.067 235.747 361.981 234.32C362.967 232.794 364.452 230.482 367.466 230.482C370.479 230.482 371.965 232.794 372.95 234.32C373.879 235.747 374.25 236.189 374.836 236.189C375.421 236.189 375.807 235.747 376.721 234.32C377.707 232.794 379.192 230.482 382.206 230.482C385.22 230.482 386.705 232.794 387.691 234.32C388.619 235.747 388.99 236.189 389.576 236.189C390.162 236.189 390.547 235.747 391.476 234.32C392.461 232.794 394.118 230.482 396.975 230.482V234.762C396.975 234.762 396.003 235.205 395.075 236.631C394.089 238.158 392.59 240.469 389.576 240.469Z" fill="#EBE8DD" fill-opacity="0.5"/>
<path d="M389.576 371.986C386.562 371.986 385.077 369.675 384.091 368.149C383.163 366.722 382.791 366.28 382.206 366.28C381.62 366.28 381.235 366.722 380.32 368.149C379.335 369.675 377.85 371.986 374.836 371.986C371.822 371.986 370.337 369.675 369.351 368.149C368.423 366.722 368.051 366.28 367.466 366.28C366.88 366.28 366.509 366.722 365.58 368.149C364.595 369.675 363.109 371.986 360.096 371.986C357.082 371.986 355.596 369.675 354.611 368.149C353.683 366.722 353.311 366.28 352.726 366.28V362C355.739 362 357.225 364.311 358.21 365.838C359.139 367.264 359.51 367.706 360.096 367.706C360.681 367.706 361.067 367.264 361.981 365.838C362.967 364.311 364.452 362 367.466 362C370.479 362 371.965 364.311 372.95 365.838C373.879 367.264 374.25 367.706 374.836 367.706C375.421 367.706 375.807 367.264 376.721 365.838C377.707 364.311 379.192 362 382.206 362C385.22 362 386.705 364.311 387.691 365.838C388.619 367.264 388.99 367.706 389.576 367.706C390.162 367.706 390.547 367.264 391.476 365.838C392.461 364.311 394.118 362 396.975 362V366.28C396.975 366.28 396.003 366.722 395.075 368.149C394.089 369.675 392.59 371.986 389.576 371.986Z" fill="#EBE8DD" fill-opacity="0.5"/>
<path d="M389.576 384.826C386.562 384.826 385.077 382.515 384.091 380.989C383.163 379.562 382.791 379.12 382.206 379.12C381.62 379.12 381.235 379.562 380.32 380.989C379.335 382.515 377.85 384.826 374.836 384.826C371.822 384.826 370.337 382.515 369.351 380.989C368.423 379.562 368.051 379.12 367.466 379.12C366.88 379.12 366.509 379.562 365.58 380.989C364.595 382.515 363.109 384.826 360.096 384.826C357.082 384.826 355.596 382.515 354.611 380.989C353.683 379.562 353.311 379.12 352.726 379.12V374.84C355.739 374.84 357.225 377.151 358.21 378.677C359.139 380.104 359.51 380.546 360.096 380.546C360.681 380.546 361.067 380.104 361.981 378.677C362.967 377.151 364.452 374.84 367.466 374.84C370.479 374.84 371.965 377.151 372.95 378.677C373.879 380.104 374.25 380.546 374.836 380.546C375.421 380.546 375.807 380.104 376.721 378.677C377.707 377.151 379.192 374.84 382.206 374.84C385.22 374.84 386.705 377.151 387.691 378.677C388.619 380.104 388.99 380.546 389.576 380.546C390.162 380.546 390.547 380.104 391.476 378.677C392.461 377.151 394.118 374.84 396.975 374.84V379.12C396.975 379.12 396.003 379.562 395.075 380.989C394.089 382.515 392.59 384.826 389.576 384.826Z" fill="#EBE8DD" fill-opacity="0.5"/>
<path d="M474.055 164.688C473.249 164.043 453.882 149.027 429.598 149.027C405.314 149.027 391.732 159.977 386.673 163.56L371.277 153.536L367.972 158.589L382.058 167.767L367.972 176.946L371.277 181.998L387.721 171.29C393.827 175.456 410.111 185.098 429.598 185.098C449.086 185.098 473.249 170.082 474.055 169.438L477.058 167.063L474.055 164.688ZM449.005 171.068C446.789 171.068 444.975 169.257 444.975 167.043C444.975 164.828 446.789 163.017 449.005 163.017C451.222 163.017 453.036 164.828 453.036 167.043C453.036 169.257 451.222 171.068 449.005 171.068Z" fill="#EBE8DD" fill-opacity="0.5"/>
<path d="M143.083 164.66C142.277 164.016 122.911 149 98.6267 149C74.3428 149 60.7599 159.95 55.7016 163.533L40.305 153.509L37 158.561L51.0867 167.74L37 176.919L40.305 181.971L56.7496 171.262C62.8558 175.429 79.1391 185.071 98.6267 185.071C118.114 185.071 142.277 170.055 143.083 169.411L146.086 167.035L143.083 164.66ZM118.034 171.041C115.817 171.041 114.003 169.229 114.003 167.015C114.003 164.801 115.817 162.99 118.034 162.99C120.25 162.99 122.064 164.801 122.064 167.015C122.064 169.229 120.25 171.041 118.034 171.041Z" fill="#EBE8DD" fill-opacity="0.5"/>
<path d="M485.997 44.6602C485.191 44.0161 465.825 29 441.541 29C417.257 29 403.674 39.9501 398.616 43.533L383.219 33.5088L379.914 38.5612L394.001 47.7399L379.914 56.9187L383.219 61.971L399.664 51.2624C405.77 55.4291 422.053 65.0708 441.541 65.0708C461.028 65.0708 485.191 50.0547 485.997 49.4106L489 47.0354L485.997 44.6602ZM460.948 51.0411C458.731 51.0411 456.917 49.2295 456.917 47.0153C456.917 44.8011 458.731 42.9895 460.948 42.9895C463.164 42.9895 464.978 44.8011 464.978 47.0153C464.978 49.2295 463.164 51.0411 460.948 51.0411Z" fill="#EBE8DD" fill-opacity="0.5"/>
<path d="M485.997 305.59C485.191 304.946 465.825 289.93 441.541 289.93C417.257 289.93 403.674 300.88 398.616 304.463L383.219 294.439L379.914 299.491L394.001 308.67L379.914 317.848L383.219 322.901L399.664 312.192C405.77 316.359 422.053 326.001 441.541 326.001C461.028 326.001 485.191 310.984 485.997 310.34L489 307.965L485.997 305.59ZM460.948 311.971C458.731 311.971 456.917 310.159 456.917 307.945C456.917 305.731 458.731 303.919 460.948 303.919C463.164 303.919 464.978 305.731 464.978 307.945C464.978 310.159 463.164 311.971 460.948 311.971Z" fill="#EBE8DD" fill-opacity="0.5"/>
<path d="M142.657 44.6602C141.85 44.0161 122.484 29 98.1999 29C73.916 29 60.3332 39.9501 55.2749 43.533L39.8783 33.5088L36.5732 38.5612L50.6599 47.7399L36.5732 56.9187L39.8783 61.971L56.3228 51.2624C62.429 55.4291 78.7123 65.0708 98.1999 65.0708C117.687 65.0708 141.85 50.0547 142.657 49.4106L145.659 47.0354L142.657 44.6602ZM117.627 51.0411C115.41 51.0411 113.597 49.2295 113.597 47.0153C113.597 44.8011 115.41 42.9895 117.627 42.9895C119.844 42.9895 121.658 44.8011 121.658 47.0153C121.658 49.2295 119.844 51.0411 117.627 51.0411Z" fill="#EBE8DD" fill-opacity="0.5"/>
<path d="M142.657 305.59C141.85 304.946 122.484 289.93 98.1999 289.93C73.916 289.93 60.3332 300.88 55.2749 304.463L39.8783 294.439L36.5732 299.491L50.6599 308.67L36.5732 317.848L39.8783 322.901L56.3228 312.192C62.429 316.359 78.7123 326.001 98.1999 326.001C117.687 326.001 141.85 310.984 142.657 310.34L145.659 307.965L142.657 305.59ZM117.627 311.971C115.41 311.971 113.597 310.159 113.597 307.945C113.597 305.731 115.41 303.919 117.627 303.919C119.844 303.919 121.658 305.731 121.658 307.945C121.658 310.159 119.844 311.971 117.627 311.971Z" fill="#EBE8DD" fill-opacity="0.5"/>
<path d="M277.235 45.3265C272.983 45.3265 270.887 42.0657 269.496 39.9119C268.186 37.899 267.662 37.275 266.836 37.275C266.01 37.275 265.466 37.899 264.176 39.9119C262.786 42.0657 260.69 45.3265 256.437 45.3265C252.185 45.3265 250.089 42.0657 248.699 39.9119C247.389 37.899 246.865 37.275 246.039 37.275C245.212 37.275 244.688 37.899 243.379 39.9119C241.988 42.0657 239.892 45.3265 235.64 45.3265C231.388 45.3265 229.292 42.0657 227.901 39.9119C226.591 37.899 226.067 37.275 225.241 37.275V31.2363C229.493 31.2363 231.589 34.4972 232.98 36.651C234.29 38.6638 234.814 39.2879 235.64 39.2879C236.466 39.2879 237.01 38.6638 238.3 36.651C239.691 34.4972 241.787 31.2363 246.039 31.2363C250.291 31.2363 252.387 34.4972 253.777 36.651C255.087 38.6638 255.611 39.2879 256.437 39.2879C257.264 39.2879 257.808 38.6638 259.098 36.651C260.488 34.4972 262.584 31.2363 266.836 31.2363C271.088 31.2363 273.184 34.4972 274.575 36.651C275.885 38.6638 276.409 39.2879 277.235 39.2879C278.061 39.2879 278.605 38.6638 279.915 36.651C281.306 34.4972 283.643 31.2363 287.674 31.2363V37.275C287.674 37.275 286.304 37.899 284.994 39.9119C283.603 42.0657 281.487 45.3265 277.235 45.3265Z" fill="#EBE8DD" fill-opacity="0.5"/>
<path d="M277.235 63.4417C272.983 63.4417 270.887 60.1809 269.496 58.0271C268.186 56.0142 267.662 55.3902 266.836 55.3902C266.01 55.3902 265.466 56.0142 264.176 58.0271C262.786 60.1809 260.69 63.4417 256.437 63.4417C252.185 63.4417 250.089 60.1809 248.699 58.0271C247.389 56.0142 246.865 55.3902 246.039 55.3902C245.212 55.3902 244.688 56.0142 243.379 58.0271C241.988 60.1809 239.892 63.4417 235.64 63.4417C231.388 63.4417 229.292 60.1809 227.901 58.0271C226.591 56.0142 226.067 55.3902 225.241 55.3902V49.3516C229.493 49.3516 231.589 52.6124 232.98 54.7662C234.29 56.7791 234.814 57.4031 235.64 57.4031C236.466 57.4031 237.01 56.7791 238.3 54.7662C239.691 52.6124 241.787 49.3516 246.039 49.3516C250.291 49.3516 252.387 52.6124 253.777 54.7662C255.087 56.7791 255.611 57.4031 256.437 57.4031C257.264 57.4031 257.808 56.7791 259.098 54.7662C260.488 52.6124 262.584 49.3516 266.836 49.3516C271.088 49.3516 273.184 52.6124 274.575 54.7662C275.885 56.7791 276.409 57.4031 277.235 57.4031C278.061 57.4031 278.605 56.7791 279.915 54.7662C281.306 52.6124 283.643 49.3516 287.674 49.3516V55.3902C287.674 55.3902 286.304 56.0142 284.994 58.0271C283.603 60.1809 281.487 63.4417 277.235 63.4417Z" fill="#EBE8DD" fill-opacity="0.5"/>
<path d="M277.235 306.256C272.983 306.256 270.887 302.995 269.496 300.842C268.186 298.829 267.662 298.205 266.836 298.205C266.01 298.205 265.466 298.829 264.176 300.842C262.786 302.995 260.69 306.256 256.437 306.256C252.185 306.256 250.089 302.995 248.699 300.842C247.389 298.829 246.865 298.205 246.039 298.205C245.212 298.205 244.688 298.829 243.379 300.842C241.988 302.995 239.892 306.256 235.64 306.256C231.388 306.256 229.292 302.995 227.901 300.842C226.591 298.829 226.067 298.205 225.241 298.205V292.166C229.493 292.166 231.589 295.427 232.98 297.581C234.29 299.594 234.814 300.218 235.64 300.218C236.466 300.218 237.01 299.594 238.3 297.581C239.691 295.427 241.787 292.166 246.039 292.166C250.291 292.166 252.387 295.427 253.777 297.581C255.087 299.594 255.611 300.218 256.437 300.218C257.264 300.218 257.808 299.594 259.098 297.581C260.488 295.427 262.584 292.166 266.836 292.166C271.088 292.166 273.184 295.427 274.575 297.581C275.885 299.594 276.409 300.218 277.235 300.218C278.061 300.218 278.605 299.594 279.915 297.581C281.306 295.427 283.643 292.166 287.674 292.166V298.205C287.674 298.205 286.304 298.829 284.994 300.842C283.603 302.995 281.487 306.256 277.235 306.256Z" fill="#EBE8DD" fill-opacity="0.5"/>
<path d="M277.235 324.371C272.983 324.371 270.887 321.111 269.496 318.957C268.186 316.944 267.662 316.32 266.836 316.32C266.01 316.32 265.466 316.944 264.176 318.957C262.786 321.111 260.69 324.371 256.437 324.371C252.185 324.371 250.089 321.111 248.699 318.957C247.389 316.944 246.865 316.32 246.039 316.32C245.212 316.32 244.688 316.944 243.379 318.957C241.988 321.111 239.892 324.371 235.64 324.371C231.388 324.371 229.292 321.111 227.901 318.957C226.591 316.944 226.067 316.32 225.241 316.32V310.281C229.493 310.281 231.589 313.542 232.98 315.696C234.29 317.709 234.814 318.333 235.64 318.333C236.466 318.333 237.01 317.709 238.3 315.696C239.691 313.542 241.787 310.281 246.039 310.281C250.291 310.281 252.387 313.542 253.777 315.696C255.087 317.709 255.611 318.333 256.437 318.333C257.264 318.333 257.808 317.709 259.098 315.696C260.488 313.542 262.584 310.281 266.836 310.281C271.088 310.281 273.184 313.542 274.575 315.696C275.885 317.709 276.409 318.333 277.235 318.333C278.061 318.333 278.605 317.709 279.915 315.696C281.306 313.542 283.643 310.281 287.674 310.281V316.32C287.674 316.32 286.304 316.944 284.994 318.957C283.603 321.111 281.487 324.371 277.235 324.371Z" fill="#EBE8DD" fill-opacity="0.5"/>
<path d="M277.235 172.09C272.983 172.09 270.887 168.829 269.496 166.676C268.186 164.663 267.662 164.039 266.836 164.039C266.01 164.039 265.466 164.663 264.176 166.676C262.786 168.829 260.69 172.09 256.437 172.09C252.185 172.09 250.089 168.829 248.699 166.676C247.389 164.663 246.865 164.039 246.039 164.039C245.212 164.039 244.688 164.663 243.379 166.676C241.988 168.829 239.892 172.09 235.64 172.09C231.388 172.09 229.292 168.829 227.901 166.676C226.591 164.663 226.067 164.039 225.241 164.039V158C229.493 158 231.589 161.261 232.98 163.415C234.29 165.428 234.814 166.052 235.64 166.052C232.466 166.052 237.01 165.428 238.3 163.415C239.691 161.261 241.787 158 246.039 158C250.291 158 252.387 161.261 253.777 163.415C255.087 165.428 255.611 166.052 256.437 166.052C257.264 166.052 257.808 165.428 259.098 163.415C260.488 161.261 262.584 158 266.836 158C271.088 158 273.184 161.261 274.575 163.415C275.885 165.428 276.409 166.052 277.235 166.052C278.061 166.052 278.605 165.428 279.915 163.415C281.306 161.261 283.643 158 287.674 158V164.039C287.674 164.039 286.304 164.663 284.994 166.676C283.603 168.829 281.487 172.09 277.235 172.09Z" fill="#EBE8DD" fill-opacity="0.5"/>
</svg>
