<svg width="35" height="12" viewBox="0 0 35 12" fill="none" xmlns="http://www.w3.org/2000/svg">
  <path fill-rule="evenodd" clip-rule="evenodd" d="M34.0366 5.03049C33.778 4.82358 27.5642 0 19.7728 0C11.9813 0 7.62332 3.51745 6.00037 4.66839L1.06042 1.44836L0 3.07131L4.51968 6.01976L0 8.96822L1.06042 10.5912L6.3366 7.15129C8.29577 8.48974 13.5202 11.5869 19.7728 11.5869C26.0253 11.5869 33.778 6.76334 34.0366 6.55643L35 5.79345L34.0366 5.03049ZM25.9995 7.08663C25.2882 7.08663 24.7063 6.5047 24.7063 5.79345C24.7063 5.0822 25.2882 4.50027 25.9995 4.50027C26.7107 4.50027 27.2926 5.0822 27.2926 5.79345C27.2926 6.5047 26.7107 7.08663 25.9995 7.08663Z" fill="currentColor"/>
</svg>
