<svg width="35" height="19" viewBox="0 0 35 19" fill="none" xmlns="http://www.w3.org/2000/svg">
  <path d="M29.1592 7.90833C26.7754 7.90833 25.6004 6.07813 24.8208 4.86928C24.0865 3.73952 23.7815 3.38929 23.3183 3.38929C22.8551 3.38929 22.5613 3.73952 21.827 4.86928C21.0474 6.07813 19.8725 7.90833 17.4887 7.90833C15.1049 7.90833 13.93 6.07813 13.1504 4.86928C12.4161 3.73952 12.1223 3.38929 11.6591 3.38929C11.1959 3.38929 10.9022 3.73952 10.1679 4.86928C9.38832 6.07813 8.21338 7.90833 5.82958 7.90833C3.44578 7.90833 2.27079 6.07813 1.49125 4.86928C0.756907 3.73952 0.463202 3.38929 0 3.38929L0 0C2.3838 0 3.55874 1.8302 4.33827 3.03905C5.07262 4.16881 5.36638 4.51905 5.82958 4.51905C6.29278 4.51905 6.58649 4.16881 7.32083 3.03905C8.10037 1.8302 9.27531 0 11.6591 0C14.0429 0 15.2179 1.8302 15.9974 3.03905C16.7318 4.16881 17.0255 4.51905 17.4887 4.51905C17.9519 4.51905 18.257 4.16881 18.98 3.03905C19.7595 1.8302 20.9345 0 23.3183 0C25.7021 0 26.877 1.8302 27.6565 3.03905C28.3909 4.16881 28.696 4.51905 29.1479 4.51905C29.5998 4.51905 29.9161 4.16881 30.6504 3.03905C31.43 1.8302 32.7405 0 35 0L35 3.38929C35 3.38929 34.2318 3.73952 33.4974 4.86928C32.7179 6.07813 31.5317 7.90833 29.1479 7.90833L29.1592 7.90833Z" fill="currentColor"/>
  <path transform="translate(0 10.17)" d="M29.1592 7.90833C26.7754 7.90833 25.6004 6.07813 24.8208 4.86928C24.0865 3.73952 23.7815 3.38929 23.3183 3.38929C22.8551 3.38929 22.5613 3.73952 21.827 4.86928C21.0474 6.07813 19.8725 7.90833 17.4887 7.90833C15.1049 7.90833 13.93 6.07813 13.1504 4.86928C12.4161 3.73952 12.1223 3.38929 11.6591 3.38929C11.1959 3.38929 10.9022 3.73952 10.1679 4.86928C9.38832 6.07813 8.21338 7.90833 5.82958 7.90833C3.44578 7.90833 2.27079 6.07813 1.49125 4.86928C0.756907 3.73952 0.463202 3.38929 0 3.38929L0 0C2.3838 0 3.55874 1.8302 4.33827 3.03905C5.07262 4.16881 5.36638 4.51905 5.82958 4.51905C6.29278 4.51905 6.58649 4.16881 7.32083 3.03905C8.10037 1.8302 9.27531 0 11.6591 0C14.0429 0 15.2179 1.8302 15.9974 3.03905C16.7318 4.16881 17.0255 4.51905 17.4887 4.51905C17.9519 4.51905 18.257 4.16881 18.98 3.03905C19.7595 1.8302 20.9345 0 23.3183 0C25.7021 0 26.877 1.8302 27.6565 3.03905C28.3909 4.16881 28.696 4.51905 29.1479 4.51905C29.5998 4.51905 29.9161 4.16881 30.6504 3.03905C31.43 1.8302 32.7405 0 35 0L35 3.38929C35 3.38929 34.2318 3.73952 33.4974 4.86928C32.7179 6.07813 31.5317 7.90833 29.1479 7.90833L29.1592 7.90833Z" fill="currentColor"/>
</svg>
