<svg width="123" height="48" viewBox="0 0 123 48" fill="none" xmlns="http://www.w3.org/2000/svg">
<path d="M68.246 37.7891C69.274 35.5681 70.0367 33.1482 70.4346 30.5957C71.6284 29.336 73.9496 26.2532 73.9496 20.7172C73.9496 20.7172 73.0211 22.0101 70.5341 22.9714C69.904 17.6012 67.9476 12.5957 64.8968 8.68409L70.4678 1.78906L62.3435 4.57359L54.2523 1.78906L59.7901 8.65094C56.7062 12.5957 54.7497 17.6012 54.1528 23.0045C51.6658 22.0432 50.7373 20.7835 50.7373 20.7835C50.7705 26.2863 53.0917 29.4023 54.2855 30.662C55.2803 36.8609 58.3974 42.2974 62.4098 46.209C64.4657 44.1537 66.2896 41.7007 67.7155 38.9493C66.4554 38.0874 63.1725 36.43 59.0274 37.7891C58.9611 37.8222 62.9735 34.5736 68.246 37.7891ZM62.3435 39.9438C62.9072 39.9438 63.3051 40.3747 63.3383 40.9051C63.3714 41.4355 62.874 41.8664 62.3435 41.8664C61.7797 41.8664 61.3818 41.4355 61.3486 40.9051C61.3486 40.3747 61.8461 39.9438 62.3435 39.9438Z" fill="#EBE8DD"/>
<path d="M1.75739 24.0418C2.15531 23.6772 2.5864 23.3125 2.98432 22.9811C2.48692 22.749 1.95635 22.5501 1.42578 22.3181C1.62474 21.9203 1.82371 21.5225 2.02267 21.1247C1.89003 20.9921 1.72423 20.8595 1.59158 20.7601C5.00711 19.9645 8.45579 19.2352 11.8713 18.5391C11.7718 18.8374 11.6724 19.1357 11.606 19.4341C11.9045 19.5998 12.2029 19.7987 12.5014 19.9645C11.9376 20.3623 11.4071 20.7601 10.8765 21.1578C11.5066 21.191 12.1034 21.2241 12.7335 21.2904C12.7335 21.5225 12.7667 21.7214 12.7667 21.9534C11.4734 22.2186 10.1801 22.517 8.92004 22.7822C9.68273 27.5225 10.4454 32.2628 11.2081 37.0363C11.0091 37.1689 10.777 37.3015 10.5781 37.4341C10.0475 36.9037 9.51693 36.3733 8.9532 35.8429C8.72108 36.5059 8.48895 37.1357 8.28999 37.7987C8.19051 37.7324 8.09103 37.6993 7.99155 37.633C7.16254 32.8927 6.30036 28.1855 5.43819 23.4451C4.27758 23.7435 3.15012 24.075 2.02267 24.3733C1.92319 24.2739 1.85687 24.1413 1.75739 24.0418Z" fill="#EBE8DD"/>
<path d="M18.5039 36.4673C18.9018 30.1358 19.3992 23.7711 19.9298 17.4396C20.0956 17.3402 20.2614 17.2076 20.4272 17.1081C20.8251 17.4065 21.1899 17.7048 21.5878 18.0363C22.0852 17.5059 22.6158 17.0087 23.1132 16.5114C23.7764 17.075 24.4065 17.6385 25.0697 18.2021C25.3681 17.6054 25.6666 16.9755 25.965 16.3789C26.0313 16.3789 26.0645 16.3789 26.1308 16.3457C28.3194 22.3126 30.4417 28.3126 32.4645 34.3457C32.3318 34.412 32.166 34.5115 32.0334 34.5777C31.5691 34.0805 31.0717 33.5833 30.6075 33.1192C30.508 33.5833 30.4085 34.0805 30.309 34.5446C29.9774 34.412 29.679 34.2463 29.3474 34.1137C29.2147 34.2794 29.0489 34.4783 28.9163 34.644C28.4852 33.749 28.0873 32.854 27.6562 31.9921C25.7329 32.2242 23.7764 32.4894 21.8531 32.7545C21.7536 33.8153 21.6541 34.9092 21.5547 35.97C21.3225 35.8706 21.0904 35.8043 20.8583 35.7048C20.7257 35.8374 20.6262 36.0032 20.4935 36.1358C20.2614 35.7048 20.0624 35.2739 19.8303 34.8761C19.4987 35.4728 19.2003 36.0695 18.8687 36.633C18.7029 36.5667 18.6034 36.5336 18.5039 36.4673ZM22.1516 29.8043C23.7433 29.5059 25.3681 29.1744 26.9598 28.9092C26.0313 26.4562 25.0697 24.0032 24.108 21.5833C23.7433 21.5833 23.4117 21.5501 23.0469 21.5501C22.7484 24.2684 22.4168 27.0197 22.1516 29.8043Z" fill="#EBE8DD"/>
<path d="M34.288 17.9408C34.4538 17.6756 34.6528 17.4104 34.8186 17.1452C34.7523 17.0789 34.686 17.0458 34.6196 16.9795C34.5533 16.9132 34.487 16.8469 34.4207 16.8137C34.3544 16.7474 34.288 16.6811 34.2549 16.5817C34.9513 16.3165 35.7803 16.0844 36.7751 15.8192C37.7699 15.5872 38.7979 15.3883 39.859 15.2557C40.1906 15.2226 40.5222 15.1894 40.8538 15.1563C41.517 15.1231 42.1802 15.09 42.8434 15.1231C43.8051 15.1563 44.6673 15.322 45.3636 15.6535C46.2258 16.0181 46.889 16.648 47.2869 17.4767C47.6185 18.1397 47.7843 18.8358 47.8175 19.5982C47.8175 19.7971 47.8175 20.0292 47.8175 20.2281C47.7843 21.2226 47.5191 22.217 47.0217 23.2115C46.5574 24.206 45.861 25.0347 44.9325 25.7308C45.2641 26.3275 45.6289 26.9905 46.06 27.7198C46.4579 28.4491 46.8558 29.1452 47.2538 29.8082C47.6517 30.4712 47.9833 31.0679 48.2486 31.5651C48.547 32.0623 48.7128 32.3938 48.8123 32.5264C48.7128 32.6259 48.5802 32.7253 48.4807 32.8579C47.7843 32.427 47.1211 31.996 46.4248 31.5651C46.5906 32.1286 46.7232 32.7253 46.889 33.2889C46.6569 33.2557 46.4248 33.1894 46.2258 33.1563C46.0932 33.2889 45.9937 33.4546 45.861 33.5872C44.402 31.5651 42.9429 29.543 41.4175 27.554C40.7212 27.7861 40.0248 27.985 39.3284 28.217C39.2953 29.0126 39.2953 29.775 39.2953 30.5043C39.2953 30.8027 39.2953 31.101 39.2953 31.4325C39.2953 31.7308 39.2953 32.0292 39.2953 32.2944C39.2953 32.5596 39.3284 32.8248 39.3284 33.0237C39.3284 33.2557 39.3616 33.4214 39.3616 33.5209C39.2953 33.5872 39.2289 33.6535 39.1626 33.7198C38.7979 33.2889 38.4663 32.8579 38.1015 32.427C37.9357 32.9574 37.803 33.4546 37.6372 33.985C37.3388 33.6866 37.0072 33.3552 36.7088 33.0568C36.6093 33.1563 36.543 33.2557 36.4435 33.322C36.4103 32.8579 36.344 32.3275 36.2777 31.6645C36.2113 31.0016 36.145 30.3054 36.0787 29.543C36.0124 28.7806 35.9461 27.985 35.8466 27.1563C35.7803 26.3275 35.6808 25.5319 35.6145 24.7032C35.5481 23.9076 35.4818 23.1121 35.4155 22.3165C35.3492 21.6203 35.2829 20.8911 35.2165 20.1949C35.0507 20.0623 34.8849 19.9629 34.7191 19.8303C35.2497 19.2999 35.7803 18.8027 36.3108 18.2723C35.6808 18.1397 34.9844 18.0402 34.288 17.9408ZM39.1958 25.0679C39.7264 24.9021 40.2901 24.6701 40.887 24.438C41.4839 24.206 42.0144 23.9076 42.5118 23.5761C43.0092 23.2447 43.4072 22.88 43.7388 22.4491C44.0704 22.0181 44.203 21.554 44.203 20.9905C44.203 20.9242 44.203 20.8579 44.203 20.7916C44.1699 20.2612 44.0041 19.8303 43.7056 19.5319C43.374 19.2005 42.9429 18.9684 42.4455 18.8358C42.0476 18.7364 41.6497 18.7364 41.1854 18.7695C41.0196 18.7695 40.887 18.8027 40.7212 18.8358C40.0911 18.9353 39.4942 19.0679 38.8973 19.2999C38.9637 20.2612 38.9968 21.1894 39.03 22.1507C39.0631 23.0789 39.1295 24.0734 39.1958 25.0679Z" fill="#EBE8DD"/>
<path d="M55.6797 32.787C56.8071 26.555 58.0341 20.2898 59.2942 14.0909C59.46 13.9914 59.6258 13.9251 59.7916 13.8257C60.1232 14.1903 60.4548 14.5218 60.7864 14.8865C61.3501 14.4224 61.8807 13.9914 62.4444 13.5273C63.0081 14.1572 63.5719 14.8202 64.1356 15.45C64.5004 14.8865 64.8651 14.2898 65.2299 13.7262C65.2962 13.7262 65.3294 13.7262 65.3957 13.7262C66.8216 19.9251 68.148 26.124 69.3749 32.3561C69.2423 32.4224 69.0765 32.4887 68.9439 32.5218C68.5459 31.9914 68.148 31.4279 67.7169 30.8975C67.5511 31.3616 67.4185 31.8257 67.2527 32.2898C66.9542 32.0909 66.6558 31.9251 66.3574 31.7262C66.1916 31.892 66.0257 32.0246 65.8599 32.1903C65.5615 31.2622 65.2631 30.334 64.9646 29.4058C63.0745 29.4058 61.1843 29.4389 59.2942 29.4721C59.0621 30.5329 58.8299 31.5936 58.631 32.6544C58.432 32.555 58.1999 32.4224 58.0009 32.3229C57.8683 32.4555 57.7356 32.5881 57.603 32.6876C57.4372 32.2566 57.2714 31.7925 57.1056 31.3616C56.7408 31.892 56.3429 32.4555 55.9781 32.9859C55.8787 32.9196 55.7792 32.8533 55.6797 32.787ZM59.9905 26.5881C61.5822 26.4555 63.1408 26.3561 64.7325 26.2898C64.1356 23.7373 63.5056 21.218 62.8755 18.6655C62.5439 18.5992 62.2123 18.566 61.8807 18.4997C61.2175 21.1848 60.5874 23.903 59.9905 26.5881Z" fill="#272423"/>
<path d="M76.5674 32.9544C76.9985 26.855 77.4296 20.7555 77.8938 14.6561C78.1591 14.6229 78.4244 14.5898 78.7228 14.5566C79.2534 15.1533 79.7508 15.75 80.2814 16.3798C80.5798 15.7832 80.8782 15.1865 81.1435 14.5898C81.243 14.6561 81.3425 14.6892 81.442 14.7555C82.901 17.9047 84.2938 21.087 85.6533 24.2362C85.8855 24.1699 86.1176 24.1368 86.3829 24.0705C86.615 21.2196 86.8471 18.4019 87.0792 15.5511C87.245 15.6837 87.444 15.8163 87.6098 15.9158C87.8088 15.7169 88.0409 15.518 88.2399 15.3191C88.5383 15.75 88.8036 16.1478 89.102 16.5787C89.5 16.2141 89.8979 15.8495 90.2958 15.4848C89.6989 21.5843 89.102 27.6506 88.5051 33.75C88.4388 33.7832 88.3393 33.7832 88.273 33.8163C87.9746 33.1865 87.6761 32.5566 87.3777 31.9268C87.1124 32.5235 86.814 33.1533 86.5487 33.75C86.3497 33.6174 86.1508 33.4848 85.9518 33.3522C85.786 33.4185 85.6202 33.518 85.4212 33.5843C84.0616 30.2031 82.6357 26.855 81.1767 23.5069C80.9777 23.5069 80.8119 23.5069 80.613 23.5069C80.3145 26.7887 80.0161 30.0373 79.7176 33.3191C79.6181 33.3522 79.4855 33.3854 79.386 33.4517C79.1207 32.9544 78.8555 32.4572 78.557 31.96C78.2254 32.3577 77.927 32.7555 77.5954 33.1533C77.4627 33.0539 77.3632 32.9876 77.2306 32.8881C76.9985 32.855 76.7995 32.8881 76.5674 32.9544Z" fill="#EBE8DD"/>
<path d="M92.6484 34.546C93.378 28.4134 94.1075 22.2808 94.8702 16.1151C95.1023 16.1814 95.3013 16.2477 95.5334 16.314C95.6329 16.2477 95.7324 16.1814 95.8318 16.1151C96.0971 16.6786 96.3624 17.2753 96.6277 17.8388C97.0256 17.2421 97.4235 16.6123 97.8215 16.0156C98.0204 16.0488 98.1862 16.0819 98.3852 16.1151C98.0204 19.1979 97.6557 22.2808 97.2909 25.3637C99.3468 22.546 101.469 19.7283 103.625 16.9438C103.824 17.1095 103.989 17.2753 104.188 17.441C104.553 17.4079 104.918 17.3747 105.283 17.3416C105.117 17.9051 104.918 18.4687 104.752 19.0653C105.349 18.7007 105.979 18.3692 106.576 18.0046C106.675 18.0709 106.775 18.1372 106.874 18.2035C105.216 20.4908 103.558 22.7781 101.933 25.0985C102.796 28.2477 103.658 31.43 104.454 34.5792C104.321 34.7118 104.221 34.8444 104.089 34.977C103.591 34.5129 103.061 34.0819 102.53 33.6178C102.464 34.1151 102.398 34.6455 102.331 35.1427C102.132 35.0101 101.933 34.8775 101.734 34.7449C101.535 34.8444 101.303 34.9438 101.104 35.0432C100.342 32.2256 99.5458 29.3747 98.75 26.5571C98.0536 27.2863 97.3572 28.0156 96.694 28.7449C96.4951 30.6344 96.2961 32.5239 96.0971 34.4134C95.865 34.314 95.6329 34.1814 95.4008 34.0819C95.2018 34.1814 95.0028 34.314 94.837 34.4134C94.5717 34.0156 94.3065 33.6178 94.0412 33.22C93.7427 33.7173 93.4111 34.1814 93.1127 34.6786C92.9469 34.6455 92.8142 34.5792 92.6484 34.546Z" fill="#EBE8DD"/>
<path d="M107.474 36.3359C109.662 30.3691 111.95 24.4354 114.305 18.5017C114.504 18.4354 114.669 18.3691 114.868 18.3359C115.167 18.7337 115.432 19.1315 115.731 19.5293C116.361 19.1647 116.991 18.8332 117.654 18.5017C118.118 19.231 118.582 19.9602 119.047 20.6895C119.511 20.1923 119.975 19.6951 120.439 19.1978C120.506 19.1978 120.539 19.231 120.605 19.231C121.003 25.5956 121.335 31.9271 121.567 38.2917C121.401 38.3249 121.235 38.358 121.103 38.3912C120.771 37.7945 120.473 37.1647 120.141 36.568C119.909 36.9989 119.677 37.4299 119.445 37.8608C119.179 37.6288 118.914 37.3967 118.649 37.1647C118.45 37.2973 118.251 37.4299 118.085 37.5293C117.952 36.568 117.787 35.5735 117.621 34.6122C115.697 34.2807 113.774 33.9823 111.818 33.684C111.42 34.6785 110.989 35.7061 110.591 36.7006C110.392 36.568 110.193 36.4022 109.994 36.2696C109.828 36.3691 109.662 36.4685 109.53 36.568C109.43 36.1039 109.364 35.6398 109.264 35.1757C108.8 35.6398 108.303 36.137 107.838 36.6011C107.673 36.5017 107.573 36.4354 107.474 36.3359ZM112.879 30.9658C114.504 31.1315 116.129 31.2973 117.753 31.463C117.554 28.8442 117.355 26.2254 117.123 23.6067C116.792 23.5072 116.46 23.3746 116.129 23.2752C115.034 25.8608 113.973 28.4133 112.879 30.9658Z" fill="#EBE8DD"/>
</svg>
